<?xml version="1.0" encoding="UTF-8" standalone="no"?>
<svg
   xmlns:sketch="http://www.bohemiancoding.com/sketch/ns"
   xmlns:dc="http://purl.org/dc/elements/1.1/"
   xmlns:cc="http://creativecommons.org/ns#"
   xmlns:rdf="http://www.w3.org/1999/02/22-rdf-syntax-ns#"
   xmlns:svg="http://www.w3.org/2000/svg"
   xmlns="http://www.w3.org/2000/svg"
   xmlns:sodipodi="http://sodipodi.sourceforge.net/DTD/sodipodi-0.dtd"
   xmlns:inkscape="http://www.inkscape.org/namespaces/inkscape"
   width="50.8mm"
   height="50.8mm"
   viewBox="0 0 2985 3445"
   version="1.1"
   id="svg2"
   inkscape:version="0.91 r13725"
   sodipodi:docname="logo.svg">
  <metadata
     id="metadata29">
    <rdf:RDF>
      <cc:Work
         rdf:about="">
        <dc:format>image/svg+xml</dc:format>
        <dc:type
           rdf:resource="http://purl.org/dc/dcmitype/StillImage" />
      </cc:Work>
    </rdf:RDF>
  </metadata>
  <sodipodi:namedview
     pagecolor="#ffffff"
     bordercolor="#666666"
     borderopacity="1"
     objecttolerance="10"
     gridtolerance="10"
     guidetolerance="10"
     inkscape:pageopacity="0"
     inkscape:pageshadow="2"
     inkscape:window-width="1440"
     inkscape:window-height="851"
     id="namedview27"
     showgrid="false"
     inkscape:zoom="3.7083823"
     inkscape:cx="27.760841"
     inkscape:cy="77.502798"
     inkscape:window-x="0"
     inkscape:window-y="0"
     inkscape:window-maximized="1"
     inkscape:current-layer="svg2" />
  <!-- Generator: Sketch 3.2 (9964) - http://www.bohemiancoding.com/sketch -->
  <title
     id="title4">Group</title>
  <desc
     id="desc6">Created with Sketch.</desc>
  <defs
     id="defs8" />
  <polygon
     id="Polygon-1"
     sketch:type="MSShapeGroup"
     points="223.80456,2505.75 223.80456,835.25 1670.5,0 3117.1954,835.25 3117.1954,2505.75 1670.5,3341 "
     style="fill:none;fill-rule:evenodd;stroke:#000000;stroke-width:90"
     transform="translate(-178,52)" />
  <path
     style="fill:#000000;fill-rule:evenodd;stroke:#979797;stroke-width:1"
     d="m 1949.8925,852.86533 c 43.0755,17.6451 -10.527,-50.36564 29.1774,-18.16988 13.9291,-39.4611 72.3263,-48.22595 112.1246,-28.48767 46.7102,10.20853 73.7635,88.6492 40.5394,134.80786 -25.2219,41.93661 -66.0299,54.02522 -92.8918,48.1566 -11.7944,10.63493 -10.2967,35.87976 -9.6523,-2.26316 -25.7247,-25.83764 -49.2322,7.2111 -45.9877,-28.15702 -29.5355,-27.46498 -24.2597,-37.19006 -27.7757,-62.77847 -29.0052,-24.57479 14.0337,5.63044 5.4776,-34.57297 -1.6589,-5.26364 -7.2714,-5.65595 -11.0115,-8.53529 z"
     id="Point-3"
     inkscape:connector-curvature="0"
     sodipodi:nodetypes="cccccccccc" />
  <path
     style="fill:#000000;fill-rule:evenodd;stroke:#979797;stroke-width:1"
     d="m 1552.6117,885.2266 c 27.3026,25.07559 -52.0491,67.20204 -41.9241,62.95613 -9.8372,-11.21378 -6.2488,18.93364 -30.4282,-6.041 -33.11,8.72694 -51.4216,-13.31302 -66.7128,-45.07538 -28.0587,-36.42861 35.7522,-109.42159 75.3753,-96.46255 41.8605,-5.19953 97.1431,55.43867 63.6898,84.6228 z"
     id="Point-2"
     inkscape:connector-curvature="0"
     sodipodi:nodetypes="cccccc" />
  <path
     style="fill:#000000;fill-rule:evenodd;stroke:#979797;stroke-width:1"
     d="m 949.9249,1009.8151 c -13.64155,-26.75147 56.8374,3.876 13.12661,-23.61833 11.49758,-28.98072 37.92199,-5.71996 14.90423,-21.23381 -29.65484,-35.59673 31.49506,-29.74681 -19.23485,-37.91897 -28.84534,-18.76577 7.1969,-48.17338 -28.31398,-15.85615 -9.23263,-7.07207 14.7833,-41.17225 -4.27119,-7.57795 9.29599,-39.02733 -19.52432,29.98968 -23.90396,-19.34498 -1.762,-14.95846 7.31115,37.61881 -21.91461,10.56761 -9.57917,10.52919 -10.93491,30.6197 -35.35137,0.51506 28.34005,22.35421 -3.62605,27.0007 -3.53918,47.53774 -12.16105,28.66588 -9.43382,18.02033 0.86984,55.13843 -46.56544,35.10545 -0.34942,-5.60374 26.57955,8.06935 -2.1978,24.687 -17.50675,46.04 1.5575,10.8112 1.72799,28.7928 2.84312,8.0938 26.37353,9.2981 -2.33693,28.3781 22.0166,-21.6367 50.67544,10.0078 -22.05841,-27.4949 12.1697,-13.629 2.44244,-26.3951 z M 840.4567,981.33775 c 6.67664,-0.26559 -4.05569,4.80622 0,0 z m 136.838,-50.30069 4.38986,-3.63273 z"
     id="Point-1"
     inkscape:connector-curvature="0"
     sodipodi:nodetypes="ccccccccccccccccccccc" />
  <path
     style="fill:#000000;fill-rule:evenodd;stroke:#979797;stroke-width:1"
     d="m 847.0607,1418.949 c 16.30263,-11.8226 -18.29195,-43.2528 15.1649,-28.0596 -5.58974,-23.99 44.59273,-33.3691 39.62057,-45.0184 14.42754,69.1108 14.52744,-37.5036 16.10281,1.4546 16.27759,17.9142 102.49702,49.5536 55.31014,103.1061 10.94847,31.3104 -47.9862,45.6708 -83.75962,35.0267 -31.18417,-26.5564 -46.34868,-38.6543 -42.4388,-66.5098 z"
     id="Point-4"
     inkscape:connector-curvature="0"
     sodipodi:nodetypes="cccccccc" />
  <path
     style="fill:#000000;fill-rule:evenodd;stroke:#979797;stroke-width:1"
     d="m 1429.4246,1422.8993 c -15.672,-42.6378 54.4469,-74.3636 78.1876,-85.0953 39.4095,9.5561 72.7284,40.1338 85.8842,-21.5073 -1.54,35.1107 -14.25,70.9811 9.6344,74.4988 15.1629,50.9756 5.6134,115.4743 -39.5421,125.4314 -49.0622,29.2302 -110.8971,0.6025 -134.7653,-41.6513 2.7655,-18.8189 -18.9991,-29.0551 0.6012,-51.6763 z"
     id="Point-5"
     inkscape:connector-curvature="0"
     sodipodi:nodetypes="ccccccc" />
  <path
     style="fill:#000000;fill-rule:evenodd;stroke:#979797;stroke-width:1"
     d="m 2035.715,1443.6134 c -65.4515,8.1038 14.0762,-13.3396 -17.5556,-57.0272 27.4754,33.6904 79.3764,-40.2694 109.5838,4.8223 54.0081,32.6948 23.3374,119.8129 -35.0432,108.2582 -28.6266,5.2838 -100.9227,-54.8961 -56.985,-56.0533 z"
     id="Point-6"
     inkscape:connector-curvature="0"
     sodipodi:nodetypes="ccccc" />
  <path
     style="fill:#000000;fill-rule:evenodd;stroke:#979797;stroke-width:1"
     d="m 824.6937,1915.104 c 14.30052,-51.3235 114.8092,-33.8026 45.33625,-89.1102 7.0019,-8.1853 48.69458,53.221 60.46645,71.6416 21.6484,-27.7085 55.62697,-173.076 56.70151,-139.8202 -15.15836,36.5513 -66.35869,150.3343 8.04199,123.5605 -24.92726,35.4695 11.5156,31.1062 8.7533,20.6486 7.1565,25.3472 22.2102,66.5165 -8.89026,114.2409 -24.66273,27.6832 -66.08568,50.1763 -116.03409,31.2827 -29.16466,3.1576 -26.49163,1.6347 -35.21961,-21.8371 -50.95528,15.5596 14.18256,-3.6145 -22.29437,-26.9355 -16.84516,-25.4503 -5.07819,-73.4196 3.13883,-83.6713 z m -10.66864,40.1586 c 5.28948,-5.7499 0.90656,8.1656 0,0 z"
     id="Point-7"
     inkscape:connector-curvature="0"
     sodipodi:nodetypes="ccccccccccccc" />
  <path
     style="fill:#000000;fill-rule:evenodd;stroke:#979797;stroke-width:1"
     d="m 1431.1263,1980.1561 c -6.1127,-6.3993 0.8837,-46.9653 -35.1697,-43.7438 16.2115,2.5227 17.3538,-25.8415 15.5135,-48.5928 -55.8371,-8.4024 29.926,5.4489 3.7748,-23.8932 25.8272,0.2824 1.5021,-38.806 26.1733,-22.5588 28.774,-12.2138 -5.2519,-47.7303 21.9583,-14.8667 40.7224,-13.0257 88.4761,-24.0768 105.7057,5.1785 29.6343,-16.5645 8.8978,34.7855 35.234,45.6954 14.0141,21.7729 -6.6014,52.9743 13.9381,50.4666 -25.2348,11.5736 -29.8481,51.2602 -67.5068,69.0808 -17.6309,17.6968 -29.481,4.2953 -61.173,10.907 13.3672,32.0617 -49.4746,-47.3389 -58.4482,-27.673 z"
     id="Point-8"
     inkscape:connector-curvature="0"
     sodipodi:nodetypes="cccccccccccc" />
  <path
     style="fill:#000000;fill-rule:evenodd;stroke:#979797;stroke-width:1"
     d="m 2076.4095,2008.1773 c -19.3726,-0.057 -15.5031,-13.8183 -44.0392,5.364 44.4957,-35.2674 -9.9009,-55.1114 -40.8064,-30.0058 40.1796,-28.6488 13.7291,-38.3706 26.6161,-49.8132 14.2173,-27.9722 -13.6664,-13.1369 -4.3654,-25.9106 7.7593,-15.9287 35.3441,-74.3953 83.2347,-76.6823 46.3463,-13.7237 97.9543,14.5436 109.9938,67.9023 16.5048,45.1834 -30.664,121.4132 -57.4105,105.6628 -17.6403,24.5173 -48.6684,10.5334 -73.2231,3.4828 z"
     id="Point-9"
     inkscape:connector-curvature="0"
     sodipodi:nodetypes="cccccccccc" />
  <path
     inkscape:connector-curvature="0"
     id="ant"
     d="m 1025.4879,2539.206 c -15.3627,-56.4143 -95.11367,-13.1211 -132.5355,-4.8378 -63.32476,46.5556 32.8394,94.6974 70.94222,55.0096 22.69701,-16.0024 50.34978,-21.5418 61.59328,-50.1718 z m 99.7851,99.7852 c -45.597,54.7477 -97.0088,-38.073 -146.68822,12.5171 -42.17611,14.3202 -95.21465,13.7248 -130.30814,-18.3775 -48.25011,-35.7793 -43.82275,-122.6714 14.71012,-145.204 43.98699,-14.1062 88.09742,-19.8501 132.1625,-26.5732 56.88444,8.3815 55.73394,-73.4158 10.53934,-85.5409 -40.37863,-2.9314 -103.94666,-6.3506 -96.7247,51.959 -55.81431,50.4239 -96.6638,-68.9759 -25.46136,-78.6728 46.04728,-17.7359 98.00406,-7.6628 143.73846,7.4823 50.4139,30.4149 44.0963,92.2812 47.4934,142.3869 -3.7797,43.815 -5.6394,95.4003 50.4474,103.0082 8.1262,8.6438 10.1966,29.0584 0.091,37.0149 z m 415.8515,-28.1445 c -19.1417,49.4281 -98.2409,38.2893 -133.0318,23.3125 -28.3472,-44.2281 67.2641,-54.0257 47.4443,-107.2005 -3.7873,-45.7707 5.1654,-95.3264 -0.3446,-137.4259 -26.0621,-29.1546 -83.5252,-41.1766 -112.4297,-11.5331 -31.4345,39.2759 -70.9251,88.3799 -52.4313,141.5915 -15.9703,45.2961 30.1233,65.389 48.8266,99.4664 -22.5409,41.1775 -95.1879,38.0706 -136.148,22.6057 -49.4399,-42.1658 66.2419,-58.5287 33.6528,-114.1311 4.1724,-42.7932 5.1531,-81.0753 -3.0573,-123.6785 -18.3008,-28.5813 -67.9828,-53.8405 -20.4294,-82.5196 51.6922,-31.0046 85.0839,79.5674 129.4287,17.8611 46.7319,-29.4574 123.5899,-24.7311 145.9129,34.3298 16.155,44.7109 -2.4368,95.3457 11.9404,141.7814 -3.4408,33.3592 6.668,59.0017 40.7438,74.6044 4.2331,5.9035 9.4399,16.4163 -0.077,20.9359 z m 358.2832,-70.3613 c -0.6659,51.2772 -33.3954,102.6214 -85.1517,114.2969 -51.7111,16.3196 -105.869,-19.8735 -129.1305,-65.044 -21.9308,-43.3535 2.6431,-93.4449 1.6548,-135.6815 12.013,-47.1127 -15.6747,-91.5789 -66.1376,-89.3615 -48.4457,-37.8941 33.3025,-62.3597 62.0458,-50.1058 10.7841,-38.3877 44.1421,-52.0995 49.436,-1.843 32.4867,26.5065 92.6463,-5.2433 121.3029,31.7121 -11.5636,57.6069 -102.6692,-6.3825 -123.524,51.1348 3.9177,59.0533 -13.7567,127.032 26.5063,177.8993 55.3103,35.4286 67.1055,-34.8181 92.3162,-63.774 18.8714,-18.0215 62.7802,11.3278 50.6818,30.7667 z"
     style="font-weight:normal;font-size:655px;font-family:'Remington Noiseless';letter-spacing:15.43160534;fill:#000000;fill-rule:evenodd;stroke:none;stroke-width:1" />
  <path
     inkscape:connector-curvature="0"
     id="S"
     d="m 1968.7626,2566.2175 c -12.0377,31.016 3.363,112.3732 45.159,89.1943 49.2932,-10.2179 100.051,24.1776 147.6352,-3.1425 54.7008,-21.1312 86.0179,-97.7578 43.5594,-144.823 -26.3269,-44.2302 -86.5863,-36.3488 -127.6413,-50.3957 -61.7259,9.7097 -73.3388,-87.2653 -11.5218,-90.7717 52.0827,-2.5189 80.8606,39.5905 124.5663,49.5384 42.3877,-45.9356 -25.4075,-92.8247 -73.567,-76.7651 -41.6136,-18.9267 -81.6541,1.3329 -117.1406,23.6362 -40.0005,35.7801 -15.7197,91.0627 21.0247,116.6055 38.4894,40.806 109.1932,15.7585 141.4246,64.1739 2.432,45.2018 -69.9554,64.8863 -107.8697,52.0342 -31.4027,-0.9943 -59.5725,-73.6172 -85.6288,-29.2845 z"
     style="fill:#000000;fill-rule:evenodd;stroke:#979797;stroke-width:1" />
</svg>
